<?xml version="1.0" standalone="no"?><!DOCTYPE svg PUBLIC "-//W3C//DTD SVG 1.1//EN" "http://www.w3.org/Graphics/SVG/1.1/DTD/svg11.dtd"><svg t="1597717350448" class="icon" viewBox="0 0 1024 1024" version="1.1" xmlns="http://www.w3.org/2000/svg" p-id="17190" xmlns:xlink="http://www.w3.org/1999/xlink" width="200" height="200"><defs><style type="text/css"></style></defs><path d="M932.6 897.6H96.1c-11.3 0-20.4 9.1-20.4 20.4v20.4c0 11.3 9.1 20.4 20.4 20.4h834.2c11.3 0 20.4-9.1 20.4-20.4V918c0-11.4-9.1-20.4-18.1-20.4zM175.4 859h698.2c22.7-2.3 20.4 4.5 20.4-20.4v-56.7c0-31.8-6.8-38.6-38.5-38.6h-136c-18.1-13.6-20.4-31.8-24.9-36.3-79.3-88.5-34-147.4 15.9-229.1 9.1-11.3 18.1-22.7 24.9-36.3 20.4-36.3 31.7-77.1 31.7-122.5 0-140.6-113.3-256.3-256.2-256.3-140.5 0-256.2 113.4-256.2 256.3 0 59 20.4 113.4 54.4 156.5 54.4 86.2 142.8 156.5 0 267.7h-136c-24.9 0-38.5 13.6-38.5 38.6v59c0 22.6 15.9 18.1 40.8 18.1z" p-id="17191" fill="#707070"></path></svg>