<?xml version="1.0" standalone="no"?><!DOCTYPE svg PUBLIC "-//W3C//DTD SVG 1.1//EN" "http://www.w3.org/Graphics/SVG/1.1/DTD/svg11.dtd"><svg t="1597717499048" class="icon" viewBox="0 0 1024 1024" version="1.1" xmlns="http://www.w3.org/2000/svg" p-id="21728" xmlns:xlink="http://www.w3.org/1999/xlink" width="200" height="200"><defs><style type="text/css"></style></defs><path d="M746.112 0c15.424 0 27.776 9.392 27.776 21.28v143.552c0 11.904-12.8 21.28-27.776 21.28-15.408 0-27.296-9.376-27.296-21.392V21.28c0-11.904 12.352-21.296 27.296-21.296zM277.888 0c14.944 0 27.296 9.392 27.296 21.28v143.552c0 11.904-12.352 21.28-27.296 21.28-15.424 0-27.776-9.376-27.776-21.392V21.28c0-11.904 12.8-21.296 27.776-21.296z m729.664 190.24c0-54.592-49.872-98.784-111.632-98.784h-91.552v73.824c0 28.048-25.728 50.944-57.68 50.944-31.952 0-57.68-22.88-57.68-50.944V91.456h-355.04v73.824c0 28.048-25.712 50.944-57.68 50.944-31.952 0-57.68-22.88-57.68-50.944V91.456H128.08c-61.76 0-111.632 44.192-111.632 98.784v100.848H1008V190.24h-0.448zM16 925.216C16 979.84 65.856 1024 127.616 1024H895.36c61.76 0 111.616-44.176 111.616-98.784V341.568H16v583.648zM286.16 633.12c16.432-14.544 43.728-9.392 58.128 7.328l119.328 138.272 238.768-277.008c14.384-16.592 39.648-19.232 57.68-6.176 18.464 13.504 13.36 45.776 1.584 57.68L489.904 869.136c-14.4 16.592-37.504 16.592-52 0l-151.856-175.136c-13.84-16.72-17.456-45.328 0.112-60.896z" fill="#707070" p-id="21729"></path></svg>