<?xml version="1.0" standalone="no"?><!DOCTYPE svg PUBLIC "-//W3C//DTD SVG 1.1//EN" "http://www.w3.org/Graphics/SVG/1.1/DTD/svg11.dtd"><svg t="1599295669173" class="icon" viewBox="0 0 1024 1024" version="1.1" xmlns="http://www.w3.org/2000/svg" p-id="3007" xmlns:xlink="http://www.w3.org/1999/xlink" width="128" height="128"><defs><style type="text/css"></style></defs><path d="M909.029357 0.163787A73.704002 73.704002 0 0 1 982.733359 73.294535v761.608021a190.606738 190.606738 0 0 1-192.039872 189.091711H173.217737a36.852001 36.852001 0 0 1-36.852001-36.565374v-127.958337a18.30316 18.30316 0 0 1 18.426-18.262213h58.963202a18.30316 18.30316 0 0 1 18.426 18.262213v69.977856h558.512549a95.282896 95.282896 0 0 0 95.815202-90.451189V131.193124a36.565374 36.565374 0 0 0-36.442534-36.565375H232.180938v106.461336a18.221267 18.221267 0 0 1-18.016533 18.262214H154.791736a18.30316 18.30316 0 0 1-18.426-18.262214V36.565374a36.852001 36.852001 0 0 1 36.852001-36.565374H909.029357zM91.733868 778.150474a38.039454 38.039454 0 0 1-27.843734-12.284 41.274241 41.274241 0 0 1-0.818933-57.530068c0.409467 0 0.409467-0.450413 0.818933-0.655147l398.411077-408.647744a38.981228 38.981228 0 0 1 56.096935-0.696094c0.409467 0.24568 0.409467 0.450413 0.818933 0.696094a41.274241 41.274241 0 0 1 0.409467 57.325335s-0.409467 0.450413-0.409467 0.655146l-398.820544 408.647745a42.461694 42.461694 0 0 1-28.662667 12.488733zM40.96 326.672515a39.963948 39.963948 0 0 1 12.284-28.662667 40.414361 40.414361 0 0 1 57.325335-0.655147c0.409467 0 0.409467 0.450413 0.818934 0.655147l408.647744 409.466678a40.946668 40.946668 0 0 1 0.818933 57.652908c-0.409467 0.24568-0.409467 0.450413-0.818933 0.655147a40.373414 40.373414 0 0 1-57.325335 0.696093 1.310293 1.310293 0 0 1-0.818933-0.696093l-408.647745-409.466678a44.672815 44.672815 0 0 1-12.284-29.645388z" p-id="3008" fill="#2c2c2c"></path></svg>