<?xml version="1.0" standalone="no"?><!DOCTYPE svg PUBLIC "-//W3C//DTD SVG 1.1//EN" "http://www.w3.org/Graphics/SVG/1.1/DTD/svg11.dtd"><svg t="1598599084776" class="icon" viewBox="0 0 1024 1024" version="1.1" xmlns="http://www.w3.org/2000/svg" p-id="9120" xmlns:xlink="http://www.w3.org/1999/xlink" width="128" height="128"><defs><style type="text/css"></style></defs><path d="M298.666667 853.333333H85.333333V85.333333h682.666667v213.333334c0 25.6 17.066667 42.666667 42.666667 42.666666s42.666667-17.066667 42.666666-42.666666V85.333333c0-46.933333-38.4-85.333333-85.333333-85.333333H85.333333C38.4 0 0 38.4 0 85.333333v768c0 46.933333 38.4 85.333333 85.333333 85.333334h213.333334c25.6 0 42.666667-17.066667 42.666666-42.666667s-17.066667-42.666667-42.666666-42.666667z" p-id="9121" fill="#2c2c2c"></path><path d="M384 426.666667H213.333333c-25.6 0-42.666667 17.066667-42.666666 42.666666s17.066667 42.666667 42.666666 42.666667h170.666667c25.6 0 42.666667-17.066667 42.666667-42.666667s-17.066667-42.666667-42.666667-42.666666zM213.333333 213.333333c-25.6 0-42.666667 17.066667-42.666666 42.666667s17.066667 42.666667 42.666666 42.666667h341.333334c25.6 0 42.666667-17.066667 42.666666-42.666667s-17.066667-42.666667-42.666666-42.666667H213.333333zM725.333333 426.666667c-166.4 0-298.666667 132.266667-298.666666 298.666666s132.266667 298.666667 298.666666 298.666667 298.666667-132.266667 298.666667-298.666667-132.266667-298.666667-298.666667-298.666666z m0 512c-119.466667 0-213.333333-93.866667-213.333333-213.333334s93.866667-213.333333 213.333333-213.333333 213.333333 93.866667 213.333334 213.333333-93.866667 213.333333-213.333334 213.333334z" p-id="9122" fill="#2c2c2c"></path><path d="M849.066667 580.266667c-12.8-8.533333-29.866667-8.533333-38.4 0-8.533333 4.266667-12.8 12.8-17.066667 21.333333l-102.4 179.2s-34.133333-34.133333-51.2-46.933333c-17.066667-12.8-42.666667-8.533333-55.466667 8.533333-8.533333 12.8-8.533333 38.4 4.266667 46.933333 29.866667 25.6 59.733333 51.2 85.333333 81.066667 17.066667 12.8 42.666667 12.8 55.466667-4.266667 42.666667-76.8 85.333333-149.333333 128-221.866666 4.266667-8.533333 8.533333-17.066667 8.533333-25.6 4.266667-17.066667-4.266667-29.866667-17.066666-38.4z" p-id="9123" fill="#2c2c2c"></path></svg>