<?xml version="1.0" standalone="no"?><!DOCTYPE svg PUBLIC "-//W3C//DTD SVG 1.1//EN" "http://www.w3.org/Graphics/SVG/1.1/DTD/svg11.dtd"><svg t="1598599021028" class="icon" viewBox="0 0 1024 1024" version="1.1" xmlns="http://www.w3.org/2000/svg" p-id="6829" xmlns:xlink="http://www.w3.org/1999/xlink" width="128" height="128"><defs><style type="text/css"></style></defs><path d="M739.555556 466.488889c77.198222 0 150.357333 23.893333 203.150222 79.644444 52.849778 55.751111 81.294222 123.448889 81.294222 199.111111 0 155.306667-125.952 278.755556-284.444444 278.755556s-284.444444-123.448889-284.444445-278.755556c0-155.306667 125.952-278.755556 284.444445-278.755555zM796.444444 0v334.506667h-79.644444V80.554667H79.644444v805.888h278.755556V967.111111H0V0h796.444444z m24.405334 562.062222c-77.255111-31.857778-166.627556-11.946667-223.516445 43.804445s-77.198222 139.377778-44.714666 215.04c32.540444 75.662222 105.642667 123.448889 190.976 123.448889 113.777778 0 203.207111-87.608889 203.207111-199.111112 0-79.644444-48.753778-151.324444-125.952-183.182222zM773.688889 625.777778v136.533333H910.222222V853.333333h-227.555555v-227.555555h91.022222z m-399.872 0v79.644444H170.666667V625.777778h203.150222zM455.111111 426.666667v79.644444H170.666667V426.666667h284.444444zM577.024 227.555556v79.644444H170.666667V227.555556h406.357333z" p-id="6830" fill="#ffffff"></path></svg>