<?xml version="1.0" standalone="no"?><!DOCTYPE svg PUBLIC "-//W3C//DTD SVG 1.1//EN" "http://www.w3.org/Graphics/SVG/1.1/DTD/svg11.dtd"><svg t="1598598916179" class="icon" viewBox="0 0 1024 1024" version="1.1" xmlns="http://www.w3.org/2000/svg" p-id="3500" width="128" height="128" xmlns:xlink="http://www.w3.org/1999/xlink"><defs><style type="text/css"></style></defs><path d="M0.137 1003.507c1.365-12.493 20.48-175.987 29.558-252.581L273.062 920.7l-245.96 101.716c-13.995 5.666-28.536-4.642-26.965-18.842z m808.946-774.812l-15.292 21.64L523.39 43.49l15.224-21.64a50.516 50.516 0 0 1 72.36-11.4L798.16 153.67c22.937 17.613 27.852 51.2 10.923 75.092zM494.652 68.27l279 200.837-449.186 595.616L45.6 663.75 494.72 68.27z m188.003 716.788a34.133 34.133 0 0 1 34.133-34.133H989.85a34.133 34.133 0 0 1 0 68.265H716.788a34.133 34.133 0 0 1-34.133-34.132zM986.027 955.72c20.957 0 37.955 15.223 37.955 34.133 0 18.841-16.998 34.133-37.955 34.133H379.215c-20.82 0-37.888-15.292-37.888-34.133 0-18.91 17-34.133 37.888-34.133h606.812z" p-id="3501" fill="#2c2c2c"></path></svg>