<?xml version="1.0" standalone="no"?><!DOCTYPE svg PUBLIC "-//W3C//DTD SVG 1.1//EN" "http://www.w3.org/Graphics/SVG/1.1/DTD/svg11.dtd"><svg t="1597717522489" class="icon" viewBox="0 0 1024 1024" version="1.1" xmlns="http://www.w3.org/2000/svg" p-id="22657" xmlns:xlink="http://www.w3.org/1999/xlink" width="200" height="200"><defs><style type="text/css"></style></defs><path d="M872.830648 149.429854c199.459805 199.119806 199.459805 523.307489 0.113 722.434295a510.177502 510.177502 0 0 1-361.729647 149.251854 509.712502 509.712502 0 0 1-361.615647-149.251854c-199.459805-199.126806-199.459805-523.307489 0-722.434295 199.239805-199.239805 523.999488-199.239805 723.232294 0zM471.775039 518.282494c-9.649991 12.890987-25.737975 25.781975-38.609962 35.449965-41.826959 38.673962-83.659918 70.901931-86.876915 174.02383h-12.871988c-9.649991 0-19.305981 9.674991-19.305981 19.336981 0 9.667991 9.655991 19.335981 19.305981 19.335982h357.167652c9.649991 0 19.305981-9.667991 19.305981-19.335982s-9.655991-19.336981-19.305981-19.336981h-12.871988c-3.215997-103.121899-45.042956-138.572865-86.882915-174.02283-12.865987-9.674991-25.737975-22.559978-38.609962-35.449965 12.877987-12.891987 25.743975-25.782975 38.615962-35.450966 41.826959-38.673962 83.659918-70.900931 86.876915-174.02383h12.871988c9.649991 0 19.305981-9.673991 19.305981-19.335981 0-9.668991-9.655991-19.336981-19.305981-19.336981H333.416174c-9.649991 0-19.305981 9.667991-19.305981 19.336981s9.655991 19.335981 19.305981 19.335981h12.871988c6.432994 103.122899 45.042956 138.572865 86.882915 174.02383 12.865987 9.673991 28.954972 22.559978 38.609962 35.449966z m-86.876915 209.473795c3.216997-87.007915 38.616962-112.78989 74.004928-145.017858 19.310981-16.113984 35.399965-29.004972 54.704946-51.56495 16.088984 22.552978 35.393965 35.449965 51.48295 51.56495 35.393965 32.226969 70.793931 58.009943 74.003928 145.017858h-16.081984L520.039992 624.64039c-3.222997-3.222997-12.877987-3.222997-16.088984 0L400.987108 727.762289h-16.094984z m48.266953 0l80.442921-80.569921 80.443922 80.569921H433.165077z m-16.082984-319.047688c-19.310981-22.552978-28.959972-51.55795-32.183969-99.899903h257.419749c0 48.341953-12.871987 77.346924-28.959972 99.899903H417.075093z m173.75283 22.559978c-6.438994 9.673991-16.087984 16.112984-22.527978 22.558978-19.304981 16.113984-38.609962 29.004972-54.698947 54.786946-19.304981-22.552978-35.393965-38.672962-54.698946-54.780946-6.439994-6.451994-16.088984-12.896987-22.527978-22.565978h154.459849z" p-id="22658" fill="#707070"></path></svg>