<?xml version="1.0" standalone="no"?><!DOCTYPE svg PUBLIC "-//W3C//DTD SVG 1.1//EN" "http://www.w3.org/Graphics/SVG/1.1/DTD/svg11.dtd"><svg t="1597717460289" class="icon" viewBox="0 0 1024 1024" version="1.1" xmlns="http://www.w3.org/2000/svg" p-id="20198" xmlns:xlink="http://www.w3.org/1999/xlink" width="200" height="200"><defs><style type="text/css"></style></defs><path d="M841.477478 224.172619C697.509553 68.976978 455.308325 36.924981 273.735943 149.026128c-5.155417 3.187599-10.320043 6.369058-16.494673 10.175757 0.791016-14.915711 1.804089-28.281113 2.131547-41.658795 0.473791-19.081591-12.753465-33.965579-30.809703-35.291784-18.842137-1.38965-35.026748 11.172457-36.490076 30.429033-3.051499 40.23947-5.382591 80.545454-7.221472 120.857579-0.780783 17.051351 12.769838 32.411177 29.540803 33.523511 41.901319 2.7793 83.84664 5.120624 125.809357 6.695492 18.667152 0.701988 33.344432-14.580067 33.644261-32.543184 0.284479-17.538445-13.381775-31.863708-31.904641-33.30043-9.887184-0.768503-19.789719-1.338485-32.402991-2.178619 57.066717-34.317597 115.991758-52.768831 180.384323-55.991222 0.25992 3.749394 0.620124 6.619768 0.63445 9.490142 0.067538 15.757892-0.170892 31.517831 0.121773 47.269583 0.23843 12.605086 8.259104 20.992103 19.643386 21.354354 11.746532 0.378623 20.603247-8.082072 21.397333-20.800745 0.364297-5.887081 0.11768-11.815093 0.121773-17.72264 0.014326-13.009292 0.004093-26.02063 0.004093-39.692001 53.722552 3.000334 103.287411 15.690354 150.839427 39.409568-3.246951 5.482875-6.102998 10.188037-8.851599 14.95869-6.9022 11.990079-4.575202 23.720238 5.862521 29.843702 10.226922 5.999644 22.021549 2.310625 29.1499-9.131985 3.183506-5.116531 6.349615-10.241248 9.756201-15.737426 43.890626 29.607318 80.94352 64.266699 110.179378 108.053971-6.412037 3.679809-11.862165 6.603395-17.096377 9.856485-10.497075 6.520507-13.725606 17.090237-8.413624 26.909883 5.423523 10.029424 16.838503 13.316284 27.840068 7.824199 6.039553-3.012613 11.929704-6.349615 18.362206-9.790994 24.543999 46.447868 37.033451 95.327112 40.544415 147.450237-3.75758 0.177032-6.623861 0.420579-9.490142 0.424672-16.933671 0.042979-33.867342-0.201591-50.794873 0.109494-11.715833 0.220011-19.779486 8.788154-19.686365 20.011776 0.084934 10.8143 7.888667 18.984377 19.047822 19.698644 4.214998 0.272199 8.460696 0.099261 12.692067 0.103354 15.871479 0.004093 31.743982 0 47.505967 0 2.205225 36.552497-22.721491 125.319194-40.987506 146.998959-5.334495-2.968611-10.649548-6.113231-16.136515-8.928347-11.283997-5.791913-23.273053-2.602268-28.892027 7.511067-5.501294 9.897418-1.912559 20.561291 9.274224 27.358091 5.180999 3.152806 10.435677 6.185886 16.338107 9.671267-29.866215 43.960211-66.646909 78.871325-110.455671 107.780749-4.221138-6.864338-7.618515-13.161764-11.754718-18.933211-6.514367-9.082866-18.500353-10.989285-27.854395-4.933359-9.115612 5.89936-11.756765 16.581654-6.314823 26.688849 3.035126 5.641487 6.500041 11.044544 10.183943 17.248849-47.922453 23.370267-97.318466 36.550451-150.847613 39.203884 0-4.371564 0.00614-7.887644 0-11.402701-0.004093-14.767332 0.224104-29.544897-0.089028-44.314275-0.282433-13.43908-9.045003-22.272259-21.144576-22.056342-11.796674 0.215918-19.779486 8.798387-19.964704 22.017456-0.207731 15.098883-0.014326 30.201859-0.095167 45.302789-0.01842 3.436262-0.453325 6.865361-0.718361 10.618848-53.405327-3.121084-102.96814-15.625886-150.143579-39.720653 3.434216-6.013971 6.473435-11.042497 9.239432-16.219403 5.850242-10.942213 3.498684-21.523199-5.956665-27.467585-10.143011-6.381337-22.157649-3.640923-28.927843 6.804986-3.510964 5.421476-6.675026 11.07115-10.320043 17.161868-44.364417-28.952402-80.840166-64.484663-110.7555-107.996666 6.755868-3.751441 12.267395-6.562463 17.515932-9.79304 10.437723-6.420223 13.764492-17.186428 8.592702-26.952862-5.191232-9.80532-17.092283-13.316284-27.90863-7.966439-6.049786 2.988054-11.886725 6.407943-18.434861 9.965979-24.185842-46.543036-37.651528-95.045703-40.414455-147.647735 19.715017 0 38.22458 0.088004 56.731072-0.022513 14.228049-0.084934 22.991644-7.65126 23.139-19.665899 0.156566-12.496615-8.699126-20.168342-23.557532-20.196994-27.028587-0.053212-54.05615-0.081864-81.080643 0-37.291324 0.119727-46.193065 9.766434-43.536562 47.456848 4.880147 69.26862 24.90625 133.734864 60.70457 193.131649 132.394333 219.667002 424.848081 283.359626 640.189567 139.436726C988.332151 730.452337 1024.429277 421.390329 841.477478 224.172619zM497.545288 550.117133c63.092967 35.291784 125.951597 71.02666 188.898231 106.590644 9.356089 5.287423 18.510586 11.013845 28.169573 15.666818 12.020778 5.791913 24.14184 5.0142 35.122939-2.919493 10.367115-7.488555 14.858406-18.034748 13.43294-30.826076-1.397836-12.494569-8.78406-20.585851-19.391652-26.52205-63.663972-35.617196-127.21231-71.450309-190.926424-106.969267-5.826705-3.246951-8.145517-6.847965-8.106632-13.746072 0.306992-53.800323 0.185218-107.60167 0.160659-161.401993-0.010233-14.104229 0.335644-28.231995-0.354064-42.307571-0.815575-16.641005-13.939477-29.29828-30.317493-30.364565-21.724791-1.416256-37.301558 13.06455-37.462217 35.623335-0.26606 37.392632-0.073678 74.794473-0.077771 112.193245 0 36.412304 0.255827 72.830749-0.11768 109.239983C476.410945 530.920932 483.203652 542.091342 497.545288 550.117133z" p-id="20199" fill="#707070"></path></svg>