<?xml version="1.0" standalone="no"?><!DOCTYPE svg PUBLIC "-//W3C//DTD SVG 1.1//EN" "http://www.w3.org/Graphics/SVG/1.1/DTD/svg11.dtd"><svg t="1597717413962" class="icon" viewBox="0 0 1024 1024" version="1.1" xmlns="http://www.w3.org/2000/svg" p-id="18821" xmlns:xlink="http://www.w3.org/1999/xlink" width="200" height="200"><defs><style type="text/css"></style></defs><path d="M542.784 47.488a211.2 211.2 0 0 0-230.4 207.424c0 136.192 120.192 188.288 111.168 298.816A124.608 124.608 0 0 1 390.4 625.92H188.544a60.864 60.864 0 0 0-60.992 61.248v121.6h270.272l360.064-634.176A219.84 219.84 0 0 0 542.784 47.488zM127.552 869.952v91.392h183.616l51.904-91.392h-235.52z m831.552-61.248v-121.6a61.632 61.632 0 0 0-61.824-61.184h-137.792a127.232 127.232 0 0 1-33.216-72.192 141.824 141.824 0 0 1 8.256-57.6L556.8 808.704h402.176z m-487.872 152.64h487.936v-91.392H522.304l-45.696 82.24zM556.8 808.704H462.016l-34.752 61.248h95.04l2.496-4.928z m177.536-312.64l182.144-321.536-71.296-41.792-23.104 41.792a204.352 204.352 0 0 1 15.424 80.384c0 109.376-77.632 165.376-102.976 241.152z m-359.744 466.752l71.232 41.984 25.6-43.264h-96z m359.936-466.752c25.6-75.776 102.976-131.712 102.976-241.152a204.352 204.352 0 0 0-15.424-80.384l-360.064 634.176H556.8z m-359.104 465.28h96l5.376-9.152 45.696-82.24H427.264z" fill="#707070" p-id="18822"></path></svg>